<svg width="13" height="13" viewBox="0 0 13 13" fill="none" xmlns="http://www.w3.org/2000/svg">
<path d="M3.82892 0.255323C3.41483 0.265423 3.08733 0.609298 3.09743 1.02339C3.10753 1.43748 3.45141 1.76498 3.8655 1.75488L3.82892 0.255323ZM12.1874 1.55191C12.6014 1.54181 12.9289 1.19793 12.9188 0.783841C12.9087 0.369751 12.5649 0.0422513 12.1508 0.0523513L12.1874 1.55191ZM12.9188 0.820415C12.9289 0.406325 12.6014 0.0624505 12.1874 0.0523507C11.7733 0.042251 11.4294 0.36975 11.4193 0.783841L12.9188 0.820415ZM11.2163 9.1057C11.2062 9.51979 11.5337 9.86367 11.9478 9.87377C12.3619 9.88387 12.7058 9.55637 12.7159 9.14228L11.2163 9.1057ZM12.6994 1.33246C12.9923 1.03957 12.9923 0.564691 12.6994 0.271798C12.4065 -0.0210949 11.9316 -0.0210951 11.6387 0.271798L12.6994 1.33246ZM0.272296 11.6382C-0.0205977 11.9311 -0.0205966 12.406 0.272297 12.6989C0.56519 12.9918 1.04006 12.9918 1.33296 12.6989L0.272296 11.6382ZM3.8655 1.75488L12.1874 1.55191L12.1508 0.0523513L3.82892 0.255323L3.8655 1.75488ZM11.4193 0.783841L11.2163 9.1057L12.7159 9.14228L12.9188 0.820415L11.4193 0.783841ZM11.6387 0.271798L0.272296 11.6382L1.33296 12.6989L12.6994 1.33246L11.6387 0.271798Z" fill="white"/>
</svg>
