<svg width="20" height="20" viewBox="0 0 20 20" fill="none" xmlns="http://www.w3.org/2000/svg">
<path fill-rule="evenodd" clip-rule="evenodd" d="M3.25655 14.3921C2.17549 13.2883 1.44226 11.8913 1.1478 10.3746C0.850906 8.85364 1.00336 7.27912 1.58655 5.84336C2.16476 4.41566 3.15192 3.19063 4.42405 2.32211C7.00511 0.559295 10.403 0.559295 12.9841 2.32211C14.2562 3.19063 15.2433 4.41566 15.8216 5.84336C16.4047 7.27912 16.5572 8.85364 16.2603 10.3746C15.9658 11.8913 15.2326 13.2883 14.1516 14.3921C12.7199 15.8613 10.7554 16.6899 8.70405 16.6899C6.65266 16.6899 4.68824 15.8613 3.25655 14.3921V14.3921Z" stroke="#777777" stroke-width="2" stroke-linecap="round" stroke-linejoin="round"/>
<path d="M8.70615 3.69131C8.15694 3.74951 7.7589 4.24191 7.81709 4.79112C7.87529 5.34033 8.36768 5.73837 8.91689 5.68018L8.70615 3.69131ZM10.9694 6.88934C11.1847 7.39793 11.7715 7.63568 12.2801 7.42037C12.7887 7.20507 13.0265 6.61823 12.8112 6.10965L10.9694 6.88934ZM14.9718 13.5643C14.5809 13.1741 13.9477 13.1746 13.5575 13.5655C13.1674 13.9564 13.1679 14.5896 13.5588 14.9797L14.9718 13.5643ZM17.7938 19.2072C18.1847 19.5974 18.8178 19.5968 19.208 19.206C19.5982 18.8151 19.5976 18.1819 19.2068 17.7918L17.7938 19.2072ZM8.91689 5.68018C9.79266 5.58738 10.6261 6.07835 10.9694 6.88934L12.8112 6.10965C12.1245 4.48767 10.4577 3.50572 8.70615 3.69131L8.91689 5.68018ZM13.5588 14.9797L17.7938 19.2072L19.2068 17.7918L14.9718 13.5643L13.5588 14.9797Z" fill="#777777"/>
</svg>
