<svg width="23" height="23" viewBox="0 0 23 23" fill="none" xmlns="http://www.w3.org/2000/svg">
<path fill-rule="evenodd" clip-rule="evenodd" d="M14.5046 5.83687L11.5 0.125L8.49537 5.83687C8.28311 6.25428 7.97588 6.61605 7.59837 6.89313C7.21903 7.17162 6.78008 7.35799 6.31625 7.4375L0.125 8.65138L4.4475 13.8205C5.03863 14.4684 5.31756 15.342 5.21125 16.2125L4.389 22.875L10.0895 20.1125C10.5293 19.8995 11.0114 19.7884 11.5 19.7875C11.9584 19.7889 12.4098 19.9004 12.8163 20.1125L18.65 22.7044L17.8277 16.1215C17.7238 15.2529 18.0032 14.382 18.5931 13.736L22.875 8.65138L16.6838 7.4375C16.2194 7.35823 15.7798 7.17185 15.4 6.89313C15.0231 6.61586 14.7164 6.2541 14.5046 5.83687Z" fill="#F1E31C" fill-opacity="0.65"/>
</svg>
