<svg width="18" height="22" viewBox="0 0 18 22" fill="none" xmlns="http://www.w3.org/2000/svg">
<path fill-rule="evenodd" clip-rule="evenodd" d="M12.6673 5.33341C12.6673 7.35846 11.0257 9.00008 9.00065 9.00008C6.97561 9.00008 5.33398 7.35846 5.33398 5.33341C5.33398 3.30837 6.97561 1.66675 9.00065 1.66675C11.0257 1.66675 12.6673 3.30837 12.6673 5.33341Z" stroke="#777777" stroke-width="2" stroke-linecap="round" stroke-linejoin="round"/>
<path d="M2.66655 15.9783C2.65017 15.4263 2.18937 14.9921 1.63733 15.0084C1.08529 15.0248 0.651051 15.4856 0.667432 16.0377L2.66655 15.9783ZM6.18033 20.2667V19.2667C6.17087 19.2667 6.1614 19.2668 6.15195 19.2671L6.18033 20.2667ZM11.8203 20.2667L11.8487 19.2671C11.8392 19.2668 11.8298 19.2667 11.8203 19.2667V20.2667ZM17.3332 16.0377C17.3496 15.4856 16.9154 15.0248 16.3633 15.0084C15.8113 14.9921 15.3505 15.4263 15.3341 15.9783L17.3332 16.0377ZM15.3341 15.8443C15.3505 16.3964 15.8113 16.8306 16.3633 16.8142C16.9154 16.7978 17.3496 16.337 17.3332 15.785L15.3341 15.8443ZM11.8203 11.556V12.556C11.8298 12.556 11.8392 12.5559 11.8487 12.5556L11.8203 11.556ZM6.18033 11.556L6.15195 12.5556C6.1614 12.5559 6.17087 12.556 6.18033 12.556V11.556ZM0.667432 15.785C0.651051 16.337 1.08529 16.7978 1.63733 16.8142C2.18937 16.8306 2.65017 16.3964 2.66655 15.8443L0.667432 15.785ZM0.667432 16.0377C0.755658 19.0108 3.23542 21.3507 6.2087 21.2663L6.15195 19.2671C4.28179 19.3202 2.72205 17.8484 2.66655 15.9783L0.667432 16.0377ZM6.18033 21.2667H11.8203V19.2667H6.18033V21.2667ZM11.7919 21.2663C14.7652 21.3507 17.245 19.0108 17.3332 16.0377L15.3341 15.9783C15.2786 17.8484 13.7189 19.3202 11.8487 19.2671L11.7919 21.2663ZM17.3332 15.785C17.245 12.8118 14.7652 10.472 11.7919 10.5564L11.8487 12.5556C13.7189 12.5025 15.2786 13.9742 15.3341 15.8443L17.3332 15.785ZM11.8203 10.556H6.18033V12.556H11.8203V10.556ZM6.2087 10.5564C3.23542 10.472 0.755658 12.8118 0.667432 15.785L2.66655 15.8443C2.72205 13.9742 4.28179 12.5025 6.15195 12.5556L6.2087 10.5564Z" fill="#777777"/>
</svg>
