<svg width="13" height="11" viewBox="0 0 13 11" fill="none" xmlns="http://www.w3.org/2000/svg">
<path d="M2.25 4C2.25 3.58579 1.91421 3.25 1.5 3.25C1.08579 3.25 0.75 3.58579 0.75 4H2.25ZM0.75 10C0.75 10.4142 1.08579 10.75 1.5 10.75C1.91421 10.75 2.25 10.4142 2.25 10H0.75ZM10.75 10C10.75 10.4142 11.0858 10.75 11.5 10.75C11.9142 10.75 12.25 10.4142 12.25 10H10.75ZM5.5 7H4.75H5.5ZM4.75 10C4.75 10.4142 5.08579 10.75 5.5 10.75C5.91421 10.75 6.25 10.4142 6.25 10H4.75ZM2.25 1C2.25 0.585786 1.91421 0.25 1.5 0.25C1.08579 0.25 0.75 0.585786 0.75 1H2.25ZM0.75 2C0.75 2.41421 1.08579 2.75 1.5 2.75C1.91421 2.75 2.25 2.41421 2.25 2H0.75ZM0.75 4V10H2.25V4H0.75ZM12.25 10V7H10.75V10H12.25ZM12.25 7C12.25 4.92893 10.5711 3.25 8.5 3.25V4.75C9.74264 4.75 10.75 5.75736 10.75 7H12.25ZM8.5 3.25C6.42893 3.25 4.75 4.92893 4.75 7H6.25C6.25 5.75736 7.25736 4.75 8.5 4.75V3.25ZM4.75 7V10H6.25V7H4.75ZM0.75 1V2H2.25V1H0.75Z" fill="white"/>
</svg>
