<svg width="17" height="16" viewBox="0 0 17 16" fill="none" xmlns="http://www.w3.org/2000/svg">
<path fill-rule="evenodd" clip-rule="evenodd" d="M9 15.0001C12.1157 14.9994 14.8559 12.9396 15.7224 9.94677C16.5889 6.95397 15.373 3.74874 12.7396 2.0836C10.1062 0.418453 6.68919 0.694279 4.35695 2.76026C2.02471 4.82624 1.3387 8.185 2.674 11.0001L1 15.0001L5.392 14.0001C6.4809 14.6564 7.72862 15.0022 9 15.0001Z" stroke="white" stroke-width="1.5" stroke-linecap="round" stroke-linejoin="round"/>
<path fill-rule="evenodd" clip-rule="evenodd" d="M7.0406 7.06608C6.47129 7.06112 6.01332 6.59646 6.01662 6.02714C6.01992 5.45781 6.48324 4.99849 7.05258 5.00013C7.62191 5.00177 8.08258 5.46375 8.0826 6.03308C8.07985 6.60597 7.61349 7.0683 7.0406 7.06608V7.06608Z" stroke="white" stroke-width="1.5" stroke-linecap="round" stroke-linejoin="round"/>
<path fill-rule="evenodd" clip-rule="evenodd" d="M9.91702 9.91808C9.91378 10.3397 10.1652 10.7217 10.5538 10.8854C10.9424 11.0491 11.3914 10.9622 11.6909 10.6654C11.9904 10.3685 12.0811 9.92028 11.9208 9.53027C11.7605 9.14026 11.3807 8.8855 10.959 8.88508C10.3861 8.88286 9.91978 9.3452 9.91702 9.91808V9.91808Z" stroke="white" stroke-width="1.5" stroke-linecap="round" stroke-linejoin="round"/>
<path d="M6.00004 6.03308C5.98604 9.50008 9.30004 11.3301 10.959 10.9511" stroke="white" stroke-width="1.5" stroke-linecap="round"/>
</svg>
