<svg width="16" height="11" viewBox="0 0 16 11" fill="none" xmlns="http://www.w3.org/2000/svg">
<path d="M5.28353 1.74971C5.69758 1.73814 6.02386 1.39311 6.01229 0.979057C6.00073 0.565005 5.65569 0.238726 5.24164 0.250292L5.28353 1.74971ZM1.00158 5.5L1.75132 5.51996C1.75167 5.50666 1.75167 5.49334 1.75132 5.48004L1.00158 5.5ZM5.26258 10L5.24164 10.7497C5.2556 10.7501 5.26957 10.7501 5.28353 10.7497L5.26258 10ZM9.52358 5.5L10.2733 5.48004C10.2625 5.07374 9.93002 4.75 9.52358 4.75V5.5ZM5.26258 4.75C4.84837 4.75 4.51258 5.08579 4.51258 5.5C4.51258 5.91421 4.84837 6.25 5.26258 6.25V4.75ZM14.8276 3.679C15.2418 3.679 15.5776 3.34321 15.5776 2.929C15.5776 2.51479 15.2418 2.179 14.8276 2.179V3.679ZM13.0016 2.179C12.5874 2.179 12.2516 2.51479 12.2516 2.929C12.2516 3.34321 12.5874 3.679 13.0016 3.679V2.179ZM13.0016 3.679C13.4158 3.679 13.7516 3.34321 13.7516 2.929C13.7516 2.51479 13.4158 2.179 13.0016 2.179V3.679ZM11.1756 2.179C10.7614 2.179 10.4256 2.51479 10.4256 2.929C10.4256 3.34321 10.7614 3.679 11.1756 3.679V2.179ZM12.2516 2.929C12.2516 3.34321 12.5874 3.679 13.0016 3.679C13.4158 3.679 13.7516 3.34321 13.7516 2.929H12.2516ZM13.7516 1C13.7516 0.585786 13.4158 0.25 13.0016 0.25C12.5874 0.25 12.2516 0.585786 12.2516 1H13.7516ZM13.7516 2.929C13.7516 2.51479 13.4158 2.179 13.0016 2.179C12.5874 2.179 12.2516 2.51479 12.2516 2.929H13.7516ZM12.2516 4.857C12.2516 5.27121 12.5874 5.607 13.0016 5.607C13.4158 5.607 13.7516 5.27121 13.7516 4.857H12.2516ZM5.24164 0.250292C2.40939 0.329411 0.176438 2.68761 0.25185 5.51996L1.75132 5.48004C1.69794 3.47505 3.27861 1.80571 5.28353 1.74971L5.24164 0.250292ZM0.25185 5.48004C0.176438 8.31239 2.40939 10.6706 5.24164 10.7497L5.28353 9.25029C3.27861 9.19429 1.69794 7.52495 1.75132 5.51996L0.25185 5.48004ZM5.28353 10.7497C8.11578 10.6706 10.3487 8.31239 10.2733 5.48004L8.77385 5.51996C8.82723 7.52495 7.24656 9.19429 5.24164 9.25029L5.28353 10.7497ZM9.52358 4.75H5.26258V6.25H9.52358V4.75ZM14.8276 2.179H13.0016V3.679H14.8276V2.179ZM13.0016 2.179H11.1756V3.679H13.0016V2.179ZM13.7516 2.929V1H12.2516V2.929H13.7516ZM12.2516 2.929V4.857H13.7516V2.929H12.2516Z" fill="white"/>
</svg>
